<?xml version="1.0" standalone="no"?>
<!DOCTYPE svg PUBLIC "-//W3C//DTD SVG 20010904//EN"
 "http://www.w3.org/TR/2001/REC-SVG-20010904/DTD/svg10.dtd">
<svg version="1.0" xmlns="http://www.w3.org/2000/svg"
 width="400.000000pt" height="400.000000pt" viewBox="0 0 400.000000 400.000000"
 preserveAspectRatio="xMidYMid meet">
<metadata>
Created by potrace 1.11, written by Peter Selinger 2001-2013
</metadata>
<g transform="translate(0.000000,400.000000) scale(0.100000,-0.100000)"
fill="#000000" stroke="none">
<path d="M2143 3654 c-101 -60 -124 -202 -48 -294 10 -12 10 -36 -1 -120 -7
-58 -13 -113 -14 -122 0 -16 -11 -18 -92 -18 -86 0 -165 -9 -230 -25 -25 -6
-29 -2 -85 109 -53 103 -58 117 -46 138 22 40 16 126 -12 174 -98 168 -355 98
-355 -95 0 -90 62 -172 141 -188 21 -4 35 -24 78 -110 41 -82 49 -108 39 -114
-7 -5 -42 -26 -77 -46 -35 -21 -95 -66 -132 -101 l-69 -63 -129 68 -129 68 -7
49 c-17 130 -110 222 -235 233 -112 11 -207 -43 -257 -145 -69 -141 1 -309
151 -358 62 -21 152 -14 203 16 42 24 36 26 170 -46 l103 -55 -25 -37 c-38
-57 -93 -197 -112 -284 l-16 -78 -93 0 c-88 0 -93 1 -123 29 -118 110 -307 34
-319 -128 -13 -178 191 -273 321 -150 40 39 41 39 122 39 l81 0 12 -87 c7 -49
15 -102 18 -119 l6 -30 -234 -126 -233 -125 -57 4 c-45 4 -66 1 -104 -17 -122
-59 -142 -228 -38 -320 67 -59 167 -60 242 -4 38 29 72 91 72 131 0 26 14 36
217 146 120 65 219 114 221 109 8 -25 107 -164 150 -212 l50 -56 -104 -147
-104 -147 -58 0 c-97 -1 -188 -56 -235 -145 -30 -56 -30 -174 0 -230 62 -116
191 -170 317 -133 55 16 148 109 164 164 16 56 15 121 -4 177 l-16 46 103 143
102 144 81 -42 c91 -48 207 -89 279 -99 55 -8 53 4 32 -165 -16 -123 -16 -125
-51 -153 -75 -62 -98 -170 -56 -253 98 -192 392 -125 392 89 0 58 -29 127 -66
156 l-24 19 17 144 18 143 70 8 c92 9 228 49 323 92 42 20 79 32 82 28 4 -5
46 -63 94 -131 l87 -124 -17 -50 c-10 -32 -15 -70 -12 -106 16 -217 269 -319
430 -174 62 56 83 104 83 192 0 57 -5 84 -22 115 -47 89 -138 144 -235 145
l-57 0 -95 132 -94 133 67 70 c37 39 87 99 111 135 24 36 44 67 46 69 3 4 436
-148 450 -158 5 -3 18 -24 29 -45 29 -57 94 -96 162 -96 115 0 193 77 193 190
0 50 -17 98 -49 134 -48 54 -155 72 -224 37 l-38 -19 -211 74 c-116 42 -215
77 -219 79 -3 3 2 40 12 82 28 115 34 268 16 388 -9 55 -19 108 -22 117 -6 14
16 28 113 77 l120 60 38 -19 c24 -13 58 -20 92 -20 174 0 270 201 160 334 -46
56 -99 79 -174 74 -86 -5 -134 -38 -171 -117 -28 -59 -28 -59 -140 -115 -62
-31 -115 -56 -117 -56 -3 0 -30 37 -60 83 -30 45 -64 94 -76 109 l-20 26 165
174 166 173 68 -3 c96 -5 146 12 208 74 90 89 105 202 42 313 -66 115 -220
162 -336 102 -50 -26 -108 -86 -129 -136 -19 -44 -23 -150 -6 -181 8 -16 -14
-43 -162 -197 l-171 -178 -84 50 c-46 28 -120 64 -165 82 -44 17 -83 33 -85
34 -2 2 3 58 10 125 13 118 14 122 42 136 15 8 41 36 58 62 58 92 29 212 -65
267 -59 35 -135 34 -193 -1z m76 -804 c227 -64 415 -220 517 -425 62 -127 85
-224 86 -365 2 -333 -174 -613 -475 -755 -123 -58 -183 -70 -357 -70 -148 1
-159 2 -250 33 -366 126 -590 456 -567 835 8 119 26 194 73 295 113 245 329
414 599 468 97 19 278 11 374 -16z"/>
<path d="M1704 2566 c-45 -20 -102 -74 -125 -118 -96 -188 82 -405 286 -348
50 14 127 76 150 120 63 123 20 266 -100 332 -40 22 -63 28 -115 27 -36 0 -79
-6 -96 -13z"/>
<path d="M2352 2290 c-94 -57 -94 -174 0 -243 56 -41 142 -21 191 44 87 117
-65 276 -191 199z"/>
<path d="M1912 1907 c-46 -14 -121 -84 -143 -132 -25 -53 -24 -147 0 -200 42
-90 126 -144 225 -145 75 0 132 26 184 85 109 124 69 309 -83 381 -54 26 -125
30 -183 11z"/>
</g>
</svg>
